Coordinates
version=1
nRows=20
nColumns=30
inDegrees=yes

Units are S.I. units (second, meters, Newtons, ...)
Angles are in degrees.

endheader
time	floatyaw	floatroll	floatpitch	floatx	floaty	floatz	pro_sup_l	deviation_l	flexion_l	cmc_flexion_l	cmc_abduction_l	mp_flexion_l	ip_flexion_l	2mcp_flexion_l	2mcp_abduction_l	2pm_flexion_l	2md_flexion_l	3mcp_flexion_l	3mcp_abduction_l	3pm_flexion_l	3md_flexion_l	4mcp_flexion_l	4mcp_abduction_l	4pm_flexion_l	4md_flexion_l	5mcp_flexion_l	5mcp_abduction_l	5pm_flexion_l	5md_flexion_l
-1.495000	-160.147433	-5.066637	-73.570646	0.081909	-0.182149	-0.016103	103.600827	4.241555	-1.571842	16.549805	5.182036	-25.040771	-41.139410	30.056107	7.193360	43.042054	29.216548	25.478628	4.473590	43.518939	28.574629	14.383410	-4.429473	52.333093	35.803698	1.940605	-8.916483	62.528272	44.179731
-1.485000	-160.147433	-5.066637	-73.570646	0.081909	-0.182143	-0.016100	103.611651	4.249779	-1.562597	16.527774	5.176182	-25.034976	-41.129641	30.037058	7.199722	43.061715	29.219410	25.441356	4.473416	43.568196	28.590256	14.356629	-4.427629	52.359987	35.810177	1.923665	-8.922419	62.553437	44.180402
-1.475000	-160.147433	-5.066637	-73.570646	0.081912	-0.182135	-0.016097	103.622355	4.258080	-1.551902	16.505732	5.182516	-25.029280	-41.110102	30.022673	7.201923	43.079123	29.225453	25.409820	4.473597	43.600993	28.599444	14.333514	-4.424299	52.373895	35.811551	1.897546	-8.925124	62.577569	44.181434
-1.465000	-160.147433	-5.066637	-73.570646	0.081918	-0.182126	-0.016095	103.629550	4.264284	-1.538796	16.480445	5.199715	-25.026098	-41.082825	30.012361	7.199717	43.096322	29.236950	25.386666	4.473907	43.610292	28.600370	14.313381	-4.420054	52.373089	35.809238	1.861661	-8.925424	62.599307	44.185069
-1.455000	-160.147433	-5.066637	-73.570646	0.081926	-0.182115	-0.016096	103.630654	4.266819	-1.521799	16.451334	5.226388	-25.027203	-41.053768	30.002323	7.194722	43.114862	29.254558	25.369422	4.474214	43.598824	28.595623	14.291506	-4.415880	52.363531	35.807514	1.817257	-8.925514	62.617433	44.192992
-1.445000	-160.147433	-5.066637	-73.570646	0.081932	-0.182100	-0.016102	103.624622	4.264910	-1.499117	16.419950	5.261508	-25.031791	-41.028458	29.987071	7.189556	43.134647	29.277019	25.351943	4.474376	43.577212	28.590807	14.260645	-4.412748	52.356005	35.811436	1.766757	-8.927482	62.631545	44.206135
-1.435000	-160.147433	-5.066637	-73.570646	0.081932	-0.182079	-0.016114	103.612811	4.258453	-1.469062	16.389420	5.303010	-25.036818	-41.009125	29.961554	7.186354	43.153317	29.301454	25.327188	4.474022	43.558802	28.591717	14.214251	-4.411192	52.360321	35.824037	1.713031	-8.931999	62.642383	44.224335
-1.425000	-160.147433	-5.066637	-73.570646	0.081926	-0.182050	-0.016136	103.600049	4.248088	-1.430348	16.364157	5.346205	-25.039121	-40.994875	29.922996	7.185578	43.166541	29.324104	25.289762	4.472449	43.554130	28.601765	14.149903	-4.411089	52.379836	35.844363	1.659229	-8.937680	62.651030	44.245508
-1.415000	-160.147433	-5.066637	-73.570646	0.081913	-0.182011	-0.016170	103.595023	4.235529	-1.382115	16.349315	5.384029	-25.037308	-40.983885	29.871839	7.185851	43.169510	29.341433	25.237381	4.468824	43.567385	28.620824	14.071360	-4.411729	52.409136	35.867363	1.609160	-8.941318	62.657137	44.264877
-1.405000	-160.147433	-5.066637	-73.570646	0.081895	-0.181958	-0.016214	103.608512	4.223664	-1.323926	16.349282	5.409433	-25.032039	-40.975628	29.811911	7.184854	43.159227	29.351371	25.171556	4.462608	43.595512	28.645547	13.988405	-4.412139	52.435899	35.885632	1.567451	-8.939027	62.657514	44.275530
-1.395000	-160.147433	-5.066637	-73.570646	0.081875	-0.181888	-0.016269	103.649006	4.216052	-1.256081	16.365231	5.417994	-25.024975	-40.971581	29.750168	7.180682	43.136462	29.354036	25.097920	4.453925	43.629646	28.670497	13.914478	-4.411579	52.446061	35.892185	1.538517	-8.928010	62.646642	44.270846
-1.385000	-160.147433	-5.066637	-73.570646	0.081851	-0.181798	-0.016330	103.717375	4.216087	-1.180152	16.392753	5.408501	-25.017541	-40.973828	29.695825	7.172964	43.106317	29.351572	25.025750	4.443657	43.658660	28.689767	13.862784	-4.410010	52.430163	35.883108	1.524460	-8.908173	62.619495	44.247731
-1.375000	-160.147433	-5.066637	-73.570646	0.081823	-0.181688	-0.016395	103.803619	4.226397	-1.099329	16.421156	5.381480	-25.010253	-40.982082	29.658473	7.163320	43.077212	29.347333	24.965987	4.433300	43.674319	28.699103	13.842192	-4.408224	52.388140	35.859056	1.523474	-8.882566	62.575163	44.208586
-1.365000	-160.147433	-5.066637	-73.570646	0.081781	-0.181558	-0.016463	103.888066	4.248674	-1.018183	16.435439	5.338053	-25.002612	-40.990843	29.645474	7.155041	43.058659	29.344953	24.928217	4.424693	43.675839	28.697938	13.854621	-4.407462	52.330124	35.825053	1.530610	-8.856225	62.518943	44.160722
-1.355000	-160.147433	-5.066637	-73.570646	0.081719	-0.181411	-0.016538	103.947201	4.283555	-0.941959	16.420639	5.281297	-24.993141	-40.988905	29.659879	7.151969	43.058167	29.347378	24.918316	4.419633	43.670534	28.689940	13.895163	-4.408672	52.272393	35.788739	1.540997	-8.834067	62.461491	44.113709
-1.345000	-160.147433	-5.066637	-73.570646	0.081630	-0.181252	-0.016622	103.961983	4.330210	-0.875823	16.367026	5.219150	-24.979404	-40.962300	29.700130	7.156806	43.077660	29.355658	24.937958	4.419364	43.669108	28.681125	13.954889	-4.411847	52.229918	35.757800	1.553446	-8.819096	62.415438	44.076264
-1.335000	-160.147433	-5.066637	-73.570646	0.081511	-0.181086	-0.016719	103.925283	4.385904	-0.824341	16.274080	5.165198	-24.958538	-40.899932	29.761663	7.169548	43.110551	29.367587	24.985563	4.423985	43.678103	28.676321	14.024994	-4.415812	52.208742	35.737535	1.571775	-8.811808	62.390911	44.053950
-1.325000	-160.147433	-5.066637	-73.570646	0.081369	-0.180917	-0.016830	103.845085	4.446342	-0.791154	16.151450	5.134649	-24.929055	-40.799808	29.839328	7.186953	43.141564	29.377211	25.057321	4.432055	43.694545	28.676221	14.100472	-4.418631	52.201878	35.729439	1.602805	-8.810732	62.391411	44.048120
-1.315000	-160.147433	-5.066637	-73.570646	0.081211	-0.180747	-0.016953	103.741494	4.507268	-0.778683	16.016103	5.136715	-24.893659	-40.673378	29.929075	7.203614	43.151157	29.376446	25.147545	4.440794	43.706661	28.677108	14.181801	-4.418478	52.191369	35.731501	1.652259	-8.813550	62.411405	44.056136
-1.305000	-160.147433	-5.066637	-73.570646	0.081043	-0.180570	-0.017089	103.638235	4.566648	-0.787840	15.886599	5.167992	-24.860996	-40.545558	30.027895	7.214263	43.123947	29.358913	25.248669	4.447125	43.700457	28.673520	14.273539	-4.414605	52.156689	35.740319	1.720948	-8.818283	62.437165	44.072918
